<svg width="100" height="100" viewBox="0 0 100 100" fill="none" xmlns="http://www.w3.org/2000/svg">
<path d="M77.2656 62.3829C76.289 60.6094 77.5312 58.8047 79.6562 56.5704C83.0234 53.0235 86.6875 44.7969 83.2812 36.4453C83.3047 36.3985 82.6093 34.9922 82.6328 34.9453L81.2344 34.875C80.789 34.8125 65.4062 34.7813 50.0078 34.7813C34.6093 34.7813 19.2265 34.8125 18.7812 34.875C18.7812 34.875 16.7109 36.3985 16.7265 36.4453C13.3281 44.7969 16.9843 53.0157 20.3515 56.5704C22.4687 58.8047 23.7109 60.6094 22.7422 62.3829C21.7968 64.1094 18.9843 64.3594 18.9843 64.3594C18.9843 64.3594 19.6328 66.1251 21.1953 67.0782C22.6406 67.961 24.4218 68.1641 25.6484 68.1954C25.6484 68.1954 30.4531 74.8438 43.0156 74.8438H57C69.5625 74.8438 74.3672 68.1954 74.3672 68.1954C75.5937 68.1641 77.375 67.961 78.8203 67.0782C80.3828 66.1251 81.0312 64.3594 81.0312 64.3594C81.0312 64.3594 78.2109 64.1094 77.2656 62.3829Z" fill="#543930"/>
<path d="M49.9922 74.8359V67.4609L72.3125 65.6953L74.3437 68.1953C74.3437 68.1953 69.539 74.8437 56.9765 74.8437L49.9922 74.8359Z" fill="url(#paint0_radial)"/>
<path d="M74.2968 64.9687C70.9531 59.8906 78.3671 57.9922 78.3671 57.9922L78.3749 58C77.0859 59.6015 76.4999 61 77.2577 62.3828C78.203 64.1093 81.0155 64.3593 81.0155 64.3593C81.0155 64.3593 77.1796 67.7656 74.2968 64.9687Z" fill="url(#paint1_radial)"/>
<path d="M83.2969 36.4453C86.6172 44.5312 83.125 52.8593 79.8516 56.375C79.4063 56.8593 77.5 58.7265 77.0625 60.2187C77.0625 60.2187 69.6094 49.8203 67.3828 43.7109C66.9375 42.4765 66.5234 41.2109 66.4688 39.8984C66.4297 38.914 66.5781 37.7422 67.1484 36.9062C67.8437 35.8828 82.8985 35.5781 82.8985 35.5781C82.8985 35.5859 83.2969 36.4453 83.2969 36.4453Z" fill="url(#paint2_radial)"/>
<path d="M16.7188 36.4454C13.4063 44.5313 16.8985 52.8594 20.1641 56.3673C20.6172 56.8516 22.5157 58.7188 22.9532 60.211C22.9532 60.211 30.4063 49.8126 32.6328 43.7032C33.086 42.4688 33.4922 41.2032 33.5469 39.8907C33.586 38.9063 33.4375 37.7345 32.8672 36.8985C32.1719 35.8751 31.3594 36.1485 30.1797 36.1485C27.9297 36.1485 18.0782 35.5704 17.3125 35.5704C17.3203 35.586 16.7188 36.4454 16.7188 36.4454Z" fill="url(#paint3_radial)"/>
<path d="M50.0235 74.8359V67.4609L27.7032 65.6953L25.6719 68.1953C25.6719 68.1953 30.4766 74.8437 43.0391 74.8437L50.0235 74.8359Z" fill="url(#paint4_radial)"/>
<path d="M25.7188 64.9687C29.0626 59.8906 21.6485 57.9922 21.6485 57.9922L21.6407 58C22.9298 59.6015 23.5157 61 22.7579 62.3828C21.8126 64.1093 19.0001 64.3593 19.0001 64.3593C19.0001 64.3593 22.836 67.7656 25.7188 64.9687Z" fill="url(#paint5_radial)"/>
<path d="M89.4531 94.336C89.4531 82.25 69.6562 75.9297 50.1094 75.9297H50C30.3594 75.9531 10.5469 81.6484 10.5469 94.336V96.875H89.4531V94.336Z" fill="url(#paint6_linear)"/>
<path d="M50 72.1328H42.9062V79.9297L49.9844 81.789L57.0937 79.9297V72.1328H50Z" fill="#E59600"/>
<path d="M9.375 94.336V96.875H35.0703L36.1094 75.75C21.5 77.9063 9.375 83.7109 9.375 94.336Z" fill="url(#paint7_linear)"/>
<path d="M63.8906 75.75L64.9219 96.875H90.625V94.336C90.625 83.7109 78.5 77.9063 63.8906 75.75Z" fill="url(#paint8_linear)"/>
<path d="M42.2109 71.9687L50.0156 81.9844L37.3281 87.1719L35.4453 75.8125L42.2109 71.9687Z" fill="#66C0E8"/>
<path d="M57.789 71.9687L49.9843 81.9844L62.6719 87.1719L64.5547 75.8125L57.789 71.9687Z" fill="#66C0E8"/>
<path d="M38.1877 74.2188C38.1877 74.2188 37.297 76.3438 36.672 78.9063C35.4299 84 35.3517 91.2501 35.3517 91.2501C35.3517 91.2501 29.9689 89.4219 28.2892 84.961C26.3049 79.6875 29.6564 76.7891 29.6564 76.7891C29.6564 76.7891 30.3595 76.4922 33.3127 74.8672C36.2658 73.2422 38.1877 74.2188 38.1877 74.2188Z" fill="#AF5214"/>
<path d="M61.8124 74.2188C61.8124 74.2188 62.7031 76.3438 63.3281 78.9063C64.5703 84 64.6484 91.2501 64.6484 91.2501C64.6484 91.2501 70.0312 89.4219 71.7109 84.961C73.6953 79.6875 70.3437 76.7891 70.3437 76.7891C70.3437 76.7891 69.6406 76.4922 66.6874 74.8672C63.7343 73.2422 61.8124 74.2188 61.8124 74.2188Z" fill="#AF5214"/>
<path d="M71.1875 39.3984H28.4922C23.8906 39.3984 20.125 43.414 20.125 48.3124C20.125 53.2109 23.8906 57.2265 28.4922 57.2265H71.1875C75.7891 57.2265 79.5547 53.2109 79.5547 48.3124C79.5547 43.414 75.7891 39.3984 71.1875 39.3984Z" fill="#E59600"/>
<path d="M49.836 8.64851C36.2422 8.64851 23.6485 23.1876 23.6485 44.1173C23.6485 64.9298 36.625 75.2188 49.836 75.2188C63.0469 75.2188 76.0234 64.9219 76.0234 44.1094C76.0234 23.1876 63.4375 8.64851 49.836 8.64851Z" fill="#FFCA28"/>
<path d="M37.4844 49.9297C39.6115 49.9297 41.3359 48.1459 41.3359 45.9454C41.3359 43.7449 39.6115 41.961 37.4844 41.961C35.3572 41.961 33.6328 43.7449 33.6328 45.9454C33.6328 48.1459 35.3572 49.9297 37.4844 49.9297Z" fill="#404040"/>
<path d="M61.8203 49.9297C63.9475 49.9297 65.6719 48.1459 65.6719 45.9454C65.6719 43.7449 63.9475 41.961 61.8203 41.961C59.6932 41.961 57.9688 43.7449 57.9688 45.9454C57.9688 48.1459 59.6932 49.9297 61.8203 49.9297Z" fill="#404040"/>
<path d="M43.2579 38.9218C42.5313 37.9609 40.8594 36.5703 37.6094 36.5703C34.3594 36.5703 32.6797 37.9687 31.961 38.9218C31.6406 39.3437 31.7188 39.8359 31.9453 40.1328C32.1485 40.4062 32.7578 40.664 33.4297 40.4374C34.1016 40.2109 35.4141 39.5312 37.6094 39.5156C39.8047 39.5312 41.1172 40.2109 41.7891 40.4374C42.461 40.664 43.0704 40.414 43.2735 40.1328C43.4922 39.8359 43.5782 39.3437 43.2579 38.9218Z" fill="#6D4C41"/>
<path d="M67.4688 38.9218C66.7422 37.9609 65.0703 36.5703 61.8203 36.5703C58.5703 36.5703 56.8906 37.9687 56.1719 38.9218C55.8516 39.3437 55.9297 39.8359 56.1563 40.1328C56.3594 40.4062 56.9688 40.664 57.6406 40.4374C58.3125 40.2109 59.625 39.5312 61.8203 39.5156C64.0156 39.5312 65.3281 40.2109 66 40.4374C66.6719 40.664 67.2813 40.414 67.4844 40.1328C67.7109 39.8359 67.7891 39.3437 67.4688 38.9218Z" fill="#6D4C41"/>
<path d="M52.8515 53.1718C52.7656 53.1406 52.6875 53.1172 52.6015 53.1093H47.0703C46.9843 53.1172 46.8984 53.1406 46.8203 53.1718C46.3203 53.375 46.0468 53.8906 46.2812 54.4453C46.5156 55 47.6171 56.5468 49.8359 56.5468C52.0547 56.5468 53.1562 54.9922 53.3906 54.4453C53.6328 53.8906 53.3515 53.375 52.8515 53.1718Z" fill="#E59600"/>
<path d="M56.5 59.4844C54.0156 60.9609 45.8516 60.9609 43.3672 59.4844C41.9375 58.6328 40.4765 59.9375 41.0703 61.2343C41.6562 62.5078 46.1016 65.4687 49.9531 65.4687C53.8047 65.4687 58.1953 62.5078 58.7813 61.2343C59.375 59.9375 57.9297 58.6328 56.5 59.4844Z" fill="#795548"/>
<path d="M73.3047 41.3516C73.25 40.4219 73.211 40.3282 71.9844 39.9375C71.0235 39.6328 65.7735 39.2032 61.8203 39.4219C61.5391 39.4375 61.2656 39.4532 61.0078 39.4766C57.4219 39.7813 53.1172 41.2266 49.8828 41.3047C48.5078 41.336 42.8438 39.8516 38.836 39.5391C38.5781 39.5235 38.3203 39.5 38.0547 39.4922C34.0938 39.2891 28.8203 39.75 27.8594 40.0625C26.6328 40.461 26.5938 40.5547 26.5469 41.4844C26.4922 42.4141 26.6484 43.2032 27.375 43.4453C28.3672 43.7735 28.375 45.0079 29.0391 48.5547C29.6406 51.7891 31.086 54.3438 37.2969 54.7891C37.5625 54.8047 37.8125 54.8204 38.0625 54.8204C43.5547 54.8985 45.4453 51.2813 46.0703 50.0782C47.2344 47.8438 46.8672 44.7657 49.9453 44.7578C53.0156 44.75 52.7266 47.7735 53.9063 50C54.5391 51.1954 56.3828 54.8282 61.8282 54.75C62.0938 54.75 62.3672 54.7344 62.6485 54.711C68.8516 54.2266 70.2891 51.6641 70.8672 48.4297C71.5078 44.875 71.5157 43.6328 72.5 43.3047C73.211 43.0703 73.3672 42.2813 73.3047 41.3516ZM41.625 53.2579C40.6719 53.7032 39.3985 53.9297 38.0547 53.9297C35.25 53.9219 32.1406 52.9375 31.0156 50.9532C29.4219 48.125 29.0078 42.4063 31.0391 41.211C31.9297 40.6875 34.9375 40.3282 38.0469 40.461C41.2735 40.6016 44.6094 41.2735 45.8125 42.8516C47.8047 45.4532 44.6406 51.836 41.625 53.2579ZM68.8907 50.836C67.7735 52.836 64.6407 53.8438 61.8203 53.8516C60.4922 53.8594 59.2344 53.6407 58.2969 53.2032C55.2735 51.7969 52.0703 45.4375 54.0391 42.8203C55.2344 41.2266 58.586 40.5391 61.8203 40.3828C64.9219 40.2344 67.9219 40.5782 68.8047 41.0938C70.8438 42.2813 70.4688 48 68.8907 50.836Z" fill="#212121" stroke="#212121" stroke-width="0.06875" stroke-miterlimit="10"/>
<path opacity="0.67" d="M79.4297 95.0079L79.875 93.2891L79.8828 93.2501L81.3906 87.3126L76 85.7657L48.7187 77.9298C48.6796 77.922 48.6484 77.922 48.6171 77.9063C47.3972 77.5852 46.1 77.7545 45.0034 78.378C43.9067 79.0015 43.0978 80.0297 42.7499 81.2423L38.2578 96.8751H78.8984L79.4297 95.0079Z" fill="url(#paint9_linear)"/>
<path d="M82.6172 87.4063C82.8437 86.6172 82.3906 85.7969 81.6016 85.5782L51.375 76.9063C50.1432 76.5542 48.822 76.7052 47.7015 77.3263C46.581 77.9473 45.7527 78.9876 45.3984 80.2188L40.625 96.8751H79.9062L82.6172 87.4063Z" fill="#424242"/>
<path d="M82.0937 93.9923C82.3672 93.0391 81.7968 92.0391 80.8281 91.7657L48.3906 82.4688C44.8516 81.4532 44.2344 84.3047 43.2422 87.7657L40.625 96.8751H81.2656L82.0937 93.9923Z" fill="url(#paint10_linear)"/>
<path d="M49.4219 76.75C48.4886 76.8709 47.6111 77.2623 46.8975 77.8759C46.184 78.4895 45.6656 79.2985 45.4062 80.2031L40.625 96.875H43.6484L49.4219 76.75Z" fill="url(#paint11_linear)"/>
<path opacity="0.2" d="M50.2577 79.3516C50.3983 79.3516 50.5546 79.3672 50.7186 79.4062L79.8202 87.7656L79.578 88.6094C70.3671 86.0391 52.789 81.0937 49.1562 79.8906C49.3436 79.6328 49.7108 79.3516 50.2577 79.3516ZM50.2577 76.75C46.7265 76.75 44.9608 81.1016 47.8202 82.1719C50.9686 83.3437 81.3592 91.7969 81.3592 91.7969L82.5936 87.4844C82.8358 86.6562 82.4452 85.8125 81.7264 85.6094L51.3827 76.8906C50.9921 76.7969 50.6171 76.75 50.2577 76.75Z" fill="#424242"/>
<path d="M80.7578 87.5938L49.664 78.6719C48.8203 78.4297 47.8984 79.0313 47.6172 80.0078L47.5703 80.1797C47.289 81.1563 47.75 82.1563 48.5937 82.3985L79.6875 91.3204C79.6875 91.3204 79.4218 90.6719 79.7421 89.5235C80.0625 88.3672 80.7578 87.5938 80.7578 87.5938Z" fill="url(#paint12_linear)"/>
<path d="M81.2885 19.6172C79.3823 16.7344 75.1088 12.8672 71.2729 12.6094C70.6557 8.92188 66.7104 5.79688 62.8901 4.58594C52.5541 1.3125 45.8276 4.98438 42.2182 6.95313C41.4682 7.35938 36.6166 10.0547 33.226 8.125C31.101 6.91406 31.1401 3.64063 31.1401 3.64063C31.1401 3.64063 24.4838 6.17969 26.7572 13.25C24.4682 13.3437 21.4682 14.3125 19.8822 17.5234C17.9916 21.3516 18.6635 24.5469 19.2104 26.0781C17.2416 27.75 14.7651 31.3047 16.4604 35.9219C17.7416 39.3984 22.8432 41 22.8432 41C22.4838 47.2578 23.6479 51.1094 24.2651 52.6641C24.3744 52.9375 24.7572 52.9141 24.8276 52.6328C25.601 49.5312 28.2416 38.7266 27.976 36.8437C27.976 36.8437 36.8432 35.0859 45.2963 28.8594C47.0151 27.5937 48.8823 26.5156 50.8666 25.7266C61.4838 21.5 63.7026 28.7109 63.7026 28.7109C63.7026 28.7109 71.062 27.2969 73.2807 37.5156C74.1167 41.3437 74.6792 47.4766 75.1557 51.7656C75.187 52.0703 75.601 52.1328 75.7182 51.8516C76.4604 50.1484 77.9448 46.7734 78.2963 43.3281C78.4213 42.1172 81.687 40.5156 83.0932 35.3125C84.976 28.375 82.6713 21.7031 81.2885 19.6172Z" fill="#543930"/>
<path d="M78.2968 43.3593C78.4218 42.1484 81.6874 40.5468 83.0937 35.3437C83.2421 34.789 83.3671 34.2265 83.4843 33.664C84.6249 27.3437 82.578 21.539 81.3046 19.6172C79.539 16.9531 75.7577 13.4531 72.1718 12.7343C71.8593 12.6953 71.5546 12.6562 71.2655 12.6406C71.2655 12.6406 71.5233 14.3203 70.8436 15.6562C69.9686 17.3906 68.1796 17.8047 68.1796 17.8047C77.5311 27.164 76.8671 34.9922 78.2968 43.3593Z" fill="url(#paint13_radial)"/>
<path d="M44.4922 5.77341C43.6328 6.18747 42.8828 6.60153 42.2266 6.95309C41.4766 7.35934 36.625 10.0547 33.2344 8.12497C31.1484 6.93747 31.1484 3.76559 31.1484 3.65622C30.1875 4.88278 27.2812 13.6406 35.7812 14.2265C39.4453 14.4765 41.7031 11.2812 43.0469 8.57809C43.5312 7.59372 44.2891 6.15622 44.4922 5.77341Z" fill="url(#paint14_radial)"/>
<path d="M61.8438 4.27338C67.5625 5.82026 70.3516 8.73432 71.2813 12.6171C71.5547 13.7578 71.8828 24.3984 51.5704 12.3046C44.0157 7.80463 46.0782 4.99213 46.961 4.67182C50.4141 3.42182 55.4376 2.53901 61.8438 4.27338Z" fill="url(#paint15_radial)"/>
<path d="M31.1251 3.65625C31.1173 3.66406 31.1016 3.66406 31.0782 3.67969H31.0704C30.3438 3.98438 24.6329 6.63281 26.7657 13.25L32.8438 14.2266C27.461 8.77344 31.1485 3.64062 31.1485 3.64062C31.1485 3.64062 31.1329 3.64844 31.1251 3.65625Z" fill="url(#paint16_radial)"/>
<path d="M30.5235 13.8515L26.7657 13.25C26.6172 13.25 26.1172 13.2969 25.8438 13.3359C23.7266 13.6328 21.2344 14.7265 19.8829 17.5234C18.4297 20.539 18.4688 23.125 18.8672 24.8515C18.9844 25.4297 19.2188 26.0859 19.2188 26.0859C19.2188 26.0859 21.0782 24.3203 25.5079 24.2031L30.5235 13.8515Z" fill="url(#paint17_radial)"/>
<path d="M19.039 26.2343C17.1875 27.8749 14.6953 31.539 16.5312 36.0859C17.914 39.5156 22.8515 41 22.8515 41C22.8515 41.0156 23.8359 41.3125 24.3437 41.3125L25.5 24.2031C23.1328 24.2031 20.8594 24.914 19.3906 25.9374C19.414 25.9609 19.0312 26.2109 19.039 26.2343Z" fill="url(#paint18_radial)"/>
<defs>
<radialGradient id="paint0_radial" cx="0" cy="0" r="1" gradientUnits="userSpaceOnUse" gradientTransform="translate(61.3929 64.18) scale(18.2961 8.98709)">
<stop offset="0.728" stop-color="#6D4C41" stop-opacity="0"/>
<stop offset="1" stop-color="#6D4C41"/>
</radialGradient>
<radialGradient id="paint1_radial" cx="0" cy="0" r="1" gradientUnits="userSpaceOnUse" gradientTransform="translate(79.4146 61.4574) rotate(154.924) scale(5.40673 4.01103)">
<stop offset="0.663" stop-color="#6D4C41"/>
<stop offset="1" stop-color="#6D4C41" stop-opacity="0"/>
</radialGradient>
<radialGradient id="paint2_radial" cx="0" cy="0" r="1" gradientUnits="userSpaceOnUse" gradientTransform="translate(65.4021 46.1651) rotate(-94.2783) scale(23.7489 19.7932)">
<stop offset="0.725" stop-color="#6D4C41" stop-opacity="0"/>
<stop offset="1" stop-color="#6D4C41"/>
</radialGradient>
<radialGradient id="paint3_radial" cx="0" cy="0" r="1" gradientUnits="userSpaceOnUse" gradientTransform="translate(34.616 46.1648) rotate(-85.7217) scale(23.7489 19.7932)">
<stop offset="0.725" stop-color="#6D4C41" stop-opacity="0"/>
<stop offset="1" stop-color="#6D4C41"/>
</radialGradient>
<radialGradient id="paint4_radial" cx="0" cy="0" r="1" gradientUnits="userSpaceOnUse" gradientTransform="translate(38.6243 64.18) rotate(180) scale(18.2961 8.98709)">
<stop offset="0.728" stop-color="#6D4C41" stop-opacity="0"/>
<stop offset="1" stop-color="#6D4C41"/>
</radialGradient>
<radialGradient id="paint5_radial" cx="0" cy="0" r="1" gradientUnits="userSpaceOnUse" gradientTransform="translate(20.6039 61.4579) rotate(25.076) scale(5.40676 4.01104)">
<stop offset="0.663" stop-color="#6D4C41"/>
<stop offset="1" stop-color="#6D4C41" stop-opacity="0"/>
</radialGradient>
<linearGradient id="paint6_linear" x1="50" y1="79.7594" x2="50" y2="91.4547" gradientUnits="userSpaceOnUse">
<stop stop-color="#E1F5FE"/>
<stop offset="1" stop-color="#81D4FA"/>
</linearGradient>
<linearGradient id="paint7_linear" x1="22.7445" y1="77.2219" x2="22.7445" y2="96.1172" gradientUnits="userSpaceOnUse">
<stop stop-color="#FFA000"/>
<stop offset="0.341" stop-color="#FF9300"/>
<stop offset="0.972" stop-color="#FF7100"/>
<stop offset="1" stop-color="#FF6F00"/>
</linearGradient>
<linearGradient id="paint8_linear" x1="77.2562" y1="77.0039" x2="77.2562" y2="96.2446" gradientUnits="userSpaceOnUse">
<stop stop-color="#FFA000"/>
<stop offset="0.341" stop-color="#FF9300"/>
<stop offset="0.972" stop-color="#FF7100"/>
<stop offset="1" stop-color="#FF6F00"/>
</linearGradient>
<linearGradient id="paint9_linear" x1="62.1632" y1="82.2555" x2="60.114" y2="90.8844" gradientUnits="userSpaceOnUse">
<stop offset="0.002" stop-color="#212121" stop-opacity="0.2"/>
<stop offset="1" stop-color="#212121" stop-opacity="0.6"/>
</linearGradient>
<linearGradient id="paint10_linear" x1="63.9375" y1="86.6422" x2="62.3976" y2="91.8079" gradientUnits="userSpaceOnUse">
<stop stop-color="#EF5350"/>
<stop offset="1" stop-color="#E53935"/>
</linearGradient>
<linearGradient id="paint11_linear" x1="45.6289" y1="85.068" x2="47.0844" y2="80.493" gradientUnits="userSpaceOnUse">
<stop stop-color="#212121"/>
<stop offset="1" stop-color="#424242"/>
</linearGradient>
<linearGradient id="paint12_linear" x1="47.5966" y1="80.0917" x2="80.2207" y2="89.4539" gradientUnits="userSpaceOnUse">
<stop offset="0.01" stop-color="#BDBDBD"/>
<stop offset="0.987" stop-color="#F8F8F7"/>
</linearGradient>
<radialGradient id="paint13_radial" cx="0" cy="0" r="1" gradientUnits="userSpaceOnUse" gradientTransform="translate(64.0756 33.6339) rotate(72.085) scale(27.8379 20.6551)">
<stop offset="0.699" stop-color="#6D4C41" stop-opacity="0"/>
<stop offset="1" stop-color="#6D4C41"/>
</radialGradient>
<radialGradient id="paint14_radial" cx="0" cy="0" r="1" gradientUnits="userSpaceOnUse" gradientTransform="translate(36.9383 3.28241) rotate(28.2025) scale(7.29937 8.65492)">
<stop offset="0.58" stop-color="#6D4C41"/>
<stop offset="1" stop-color="#6D4C41" stop-opacity="0"/>
</radialGradient>
<radialGradient id="paint15_radial" cx="0" cy="0" r="1" gradientUnits="userSpaceOnUse" gradientTransform="translate(53.2514 16.5384) rotate(-157.19) scale(22.8278 12.8293)">
<stop offset="0.699" stop-color="#6D4C41" stop-opacity="0"/>
<stop offset="1" stop-color="#6D4C41"/>
</radialGradient>
<radialGradient id="paint16_radial" cx="0" cy="0" r="1" gradientUnits="userSpaceOnUse" gradientTransform="translate(34.0071 9.94131) scale(6.69921 8.19516)">
<stop offset="0.702" stop-color="#6D4C41" stop-opacity="0"/>
<stop offset="1" stop-color="#6D4C41"/>
</radialGradient>
<radialGradient id="paint17_radial" cx="0" cy="0" r="1" gradientUnits="userSpaceOnUse" gradientTransform="translate(33.0842 21.7667) rotate(-164.942) scale(12.5653 11.7588)">
<stop offset="0.66" stop-color="#6D4C41" stop-opacity="0"/>
<stop offset="1" stop-color="#6D4C41"/>
</radialGradient>
<radialGradient id="paint18_radial" cx="0" cy="0" r="1" gradientUnits="userSpaceOnUse" gradientTransform="translate(30.1064 33.8991) rotate(7.83356) scale(13.1926 18.5378)">
<stop offset="0.598" stop-color="#6D4C41" stop-opacity="0"/>
<stop offset="1" stop-color="#6D4C41"/>
</radialGradient>
</defs>
</svg>
